<svg xmlns="http://www.w3.org/2000/svg" viewBox="0 9 179.8 72"><style>.prefix__a{fill:#0092c3}.prefix__b{fill:#f08119}.prefix__c{fill:#333}</style><path class="prefix__a" d="M25.8 12.9h20.5v20.5H25.8zM3.7 12.9h20.5v20.5H3.7z"/><path class="prefix__b" d="M3.7 35h20.5v20.5H3.7z"/><path class="prefix__c" d="M3.7 57.1h20.5v20.5H3.7z"/><path class="prefix__b" d="M25.8 35.1v20.4l12.9-10.2z"/><path d="M65.7 65.4H58v12.2h-4.7v-27h15.4v4.1H58v6.5h7.7v4.2zM82 77.6l-.3-2.6h-.2c-.7.9-1.7 1.7-3 2.2-1.3.6-2.6.8-3.9.8-1.7 0-3.1-.5-4-1.5-1-1-1.5-2.3-1.5-3.9 0-1.1.2-2.1.7-3 .5-.9 1.2-1.6 2.1-2.2.9-.6 2-1.1 3.2-1.4 1.3-.3 2.7-.5 4.2-.5h1.8v-.6c0-1.1-.3-1.8-1-2.3-.7-.5-1.8-.7-3.3-.7-2 0-3.8.4-5.4 1.3l-.9-3.4c1.8-1.1 4-1.6 6.6-1.6 2.7 0 4.8.6 6.2 1.7.7.5 1.2 1.2 1.6 2 .4.8.6 1.8.6 2.9v12.8H82zm-5.6-3.1c.9 0 1.7-.2 2.6-.6.9-.4 1.6-1 2.1-1.7v-3.7h-.8c-2.2 0-3.9.3-4.9.9-1 .6-1.5 1.5-1.5 2.7.1 1.6.9 2.4 2.5 2.4zM103.2 77.6V65.2c0-2.2-.9-3.3-2.7-3.3-.4 0-.9.1-1.4.2-.5.2-1 .4-1.5.7-.5.3-.9.7-1.3 1.2s-.7 1-.8 1.6v12H91V58.8h3.5l.2 2.8h.2c.5-1.1 1.4-2 2.6-2.6 1.2-.6 2.4-.8 3.8-.8 1.3 0 2.4.3 3.5.8 1 .5 1.8 1.4 2.3 2.6.5-1.1 1.4-2 2.6-2.5 1.2-.6 2.4-.8 3.8-.8.9 0 1.7.1 2.5.3.8.2 1.5.6 2 1.1.6.5 1 1.2 1.4 2 .3.8.5 1.9.5 3.1v12.8h-4.5V65.2c0-2.2-.9-3.3-2.7-3.3-.4 0-.9.1-1.4.2-.5.2-1 .4-1.5.7-.5.3-.9.7-1.3 1.2s-.7 1-.8 1.6v12h-4.5zM133.5 58.2c1.7 0 3.1.3 4.3.8 1.2.6 2.2 1.3 3 2.2.8.9 1.3 2 1.7 3.2.4 1.2.6 2.5.6 3.8 0 1.3-.2 2.6-.6 3.8-.4 1.2-.9 2.2-1.7 3.1-.8.9-1.8 1.6-2.9 2.1-1.2.5-2.6.8-4.2.8-1.7 0-3.1-.3-4.3-.8-1.2-.5-2.2-1.3-3-2.2-.8-.9-1.4-2-1.8-3.2-.4-1.2-.6-2.5-.6-3.8 0-1.3.2-2.6.6-3.8.4-1.2 1-2.2 1.7-3.2.8-.9 1.8-1.6 3-2.2 1.2-.3 2.6-.6 4.2-.6zm.1 16.5c.8 0 1.5-.2 2.1-.5.6-.3 1.1-.8 1.5-1.4.4-.6.7-1.3.8-2 .2-.8.3-1.6.3-2.4 0-.9-.1-1.7-.3-2.5-.2-.8-.5-1.5-.9-2.1-.4-.6-.9-1.1-1.5-1.5-.6-.4-1.3-.6-2.2-.6-.8 0-1.5.2-2 .5-.6.3-1 .8-1.4 1.4-.4.6-.6 1.2-.8 2-.2.8-.3 1.6-.3 2.4 0 .9.1 1.7.3 2.5.2.8.5 1.5.9 2.1.4.6.9 1.1 1.5 1.5.5.4 1.2.6 2 .6zM157.9 78.1c-1.5 0-2.7-.3-3.7-.9-1-.6-1.8-1.3-2.6-2.2h-.2l-.3 2.6h-3.6V47.4h4.5v13.3c.6-.8 1.5-1.4 2.5-1.8 1-.4 2.2-.7 3.5-.7 1.4 0 2.7.3 3.7.8 1.1.5 1.9 1.3 2.7 2.2.7.9 1.2 1.9 1.6 3.1.3 1.2.5 2.4.5 3.7 0 1.4-.2 2.8-.6 4-.4 1.2-1 2.3-1.7 3.2-.7.9-1.7 1.6-2.7 2.1-1.1.5-2.3.8-3.6.8zm-.6-3.4c.8 0 1.5-.2 2.1-.6.6-.4 1.1-.9 1.5-1.5.4-.6.7-1.3.9-2.1.2-.8.3-1.6.3-2.4 0-.8-.1-1.7-.3-2.4-.2-.8-.5-1.5-.9-2.1-.4-.6-1-1.1-1.6-1.4-.6-.3-1.4-.5-2.2-.5-.8 0-1.6.2-2.4.6-.8.4-1.7 1.1-2.5 2.1v7.8c.3.4.7.8 1.1 1.1s.9.6 1.4.8c.5.2 1 .4 1.5.5s.7.1 1.1.1zM170.4 52.8c0-.4.1-.7.2-1.1.1-.4.4-.7.6-1 .3-.3.6-.5.9-.7.3-.2.7-.2 1.1-.2.4 0 .7.1 1.1.2.4.2.7.4 1 .7.3.3.5.6.7 1 .2.4.2.7.2 1.1 0 .4-.1.8-.2 1.1-.2.3-.4.6-.7.9-.3.3-.6.5-1 .6-.4.1-.7.2-1.1.2-.8 0-1.5-.3-2-.9-.6-.4-.8-1.1-.8-1.9zm5.1 24.8H171V58.8h4.5v18.8z" class="prefix__c"/></svg>