<svg version="1.1" id="prefix__Ebene_1" xmlns="http://www.w3.org/2000/svg" x="0" y="0" viewBox="0 0 256 256" xml:space="preserve"><style>.prefix__st0{display:none;fill:#33b679}.prefix__st1{fill:#ffc600}</style><path class="prefix__st0" d="M94.7 47.5l27.6 7.5 26-11.7 17.9 22.3 28.1 5.8 1.3 28.6 19.3 21.2-15.7 23.9 3.1 28.4-26.8 10.2-14.2 24.8-27.6-7.5-26 11.7-17.9-22.3-28.1-5.8-1.3-28.6-19.3-21.2 15.7-23.9-3.1-28.4 26.8-10.2 14.2-24.8z"/><path class="prefix__st0" d="M174.1 54.1l10 26.8 24.6 14.3-7.7 27.5 11.6 26.2-22.5 17.7-6 28-28.6 1.1-21.3 19-23.9-15.7-28.4 2.9-10-26.8-24.6-14.3 7.7-27.5L43.4 107l22.5-17.7 6-28 28.6-1.1 21.3-19L145.7 57l28.4-2.9z"/><path class="prefix__st1" d="M140.1 129.6v-6.5c7.8 0 13.9-2.2 18.2-6.6 4.7-4.9 6.1-11.3 6.6-15.1H153v-6.5h18.5l.1 3.1c0 .6.4 13.7-8.6 22.9-5.6 5.8-13.2 8.7-22.9 8.7zm-26.1 0v-6.5c-7.8 0-13.9-2.2-18.2-6.6-4.7-4.9-6.1-11.3-6.6-15.1h11.9v-6.5H82.7l-.1 3.1c0 .6-.4 13.7 8.6 22.9 5.4 5.8 13.1 8.7 22.8 8.7zm5.3 0h14.3v26.8h-14.3v-26.8zm38-27.2v-7.5H96.6v7.5s-1.9 40.5 30.3 40.5c32.3 0 30.4-40.5 30.4-40.5z"/><path class="prefix__st1" d="M126.9 95H93.2s-2.1 48 33.7 48V95zM126.9 94.9h33.7s2.1 48-33.7 48v-48zM150.5 177.7c0-7.3-10.6-13.3-23.6-13.3s-23.6 6-23.6 13.3h47.2z"/><path class="prefix__st1" d="M139.8 168.2c0-8.9-5.8-16.1-12.9-16.1s-12.9 7.2-12.9 16.1h25.8z"/></svg>