<svg data-linecolor="#6B343A" width="20" height="20" viewBox="0 0 20 20" fill="none" xmlns="http://www.w3.org/2000/svg">
	<mask id="mask0_808_1322" style="mask-type: alpha" maskUnits="userSpaceOnUse" x="0" y="0" width="20" height="20">
		<path
			d="M20 10.001C20 15.5261 15.5215 19.999 10.0063 19.999C4.47226 20 0 15.5261 0 10.001C0 4.47596 4.47226 0 10.0063 0C15.5204 0 20 4.47701 20 10.001Z"
			fill="#F2F2F2"
		/>
	</mask>
	<g mask="url(#mask0_808_1322)">
		<path
			d="M20 10C20 15.5245 15.5152 19.9979 10 19.9979C4.47226 19.999 0 15.5245 0 10C0 4.47654 4.47226 0 9.99896 0C15.5142 0 20 4.47654 20 10Z"
			fill="#F2F2F2"
		/>
		<path d="M19.9995 4H-0.000488281V16H19.9995V4Z" fill="#6B343A" />
		<path
			d="M5.18255 8.58687L4.81543 7.3688C5.70717 7.03092 6.62498 6.59396 7.1934 6.12988H8.2614V13.8502H6.79707V7.85373L5.18255 8.58687Z"
			fill="white"
		/>
		<path
			d="M9.38037 13.3976L9.8205 12.2713C10.6194 12.6415 11.1962 12.7552 11.8637 12.7552C12.8441 12.7552 13.3061 12.1681 13.3061 11.4016C13.3061 10.8071 13.0203 10.0844 12.0618 10.0844C11.6155 10.0844 11.1858 10.2628 10.8457 10.6226L9.79964 10.536L9.94879 6.18518H14.3971V7.4825H11.2202L11.1211 9.35548L11.143 9.36695C11.5028 9.06035 12.0399 8.83509 12.5854 8.83509C13.935 8.83509 14.8476 9.69128 14.8476 11.3161C14.8476 13.0608 13.7577 13.9628 11.9544 13.9628C11.0596 13.9628 10.3034 13.8168 9.38037 13.3976Z"
			fill="white"
		/>
	</g>
</svg>
