<svg data-linecolor="#F8E100" xmlns="http://www.w3.org/2000/svg" x="0px" y="0px" width="20" height="20" viewBox="0 0 19.176 19.18">
	<path
		fill="#F8E100"
		d="M19.176,9.591c0,5.297-4.293,9.587-9.587,9.587C4.288,19.179,0,14.888,0,9.591C0,4.294,4.288,0,9.588,0 C14.882,0,19.176,4.294,19.176,9.591z"
	/>
	<path
		fill="#F2F2F2"
		d="M8.643,0.99c0.334,0.581-0.697,1.8-2.302,2.724C4.734,4.64,3.164,4.918,2.829,4.338 C2.495,3.757,3.524,2.538,5.131,1.613C6.736,0.689,8.308,0.41,8.643,0.99z"
	/>
	<path
		fill="#F2F2F2"
		d="M3.295,6.837c0.298,0.519,0.13,1.174-0.376,1.466C2.414,8.594,1.762,8.409,1.464,7.891 C1.165,7.373,1.333,6.717,1.839,6.426C2.345,6.135,2.997,6.319,3.295,6.837z"
	/>
	<path fill="#231F20" d="M6.977,8.046L6.569,6.723c0.97-0.368,1.976-0.845,2.587-1.349h1.168v8.396H8.725V7.249L6.977,8.046z" />
</svg>
