<svg data-linecolor="#3A4ABA" width="20" height="20" viewBox="0 0 20 20" fill="none" xmlns="http://www.w3.org/2000/svg">
	<mask id="mask0_808_1323" style="mask-type: alpha" maskUnits="userSpaceOnUse" x="0" y="0" width="20" height="20">
		<path
			d="M20 10.001C20 15.5245 15.5215 19.9979 10 19.9979C4.47226 19.999 0 15.5245 0 10.001C0 4.47758 4.47226 0 9.99896 0C15.5204 0 20 4.47758 20 10.001Z"
			fill="#F2F2F2"
		/>
	</mask>
	<g mask="url(#mask0_808_1323)">
		<path
			d="M20 10C20 15.5245 15.5152 19.9979 10 19.9979C4.47226 19.999 0 15.5245 0 10C0 4.47654 4.47226 0 9.99896 0C15.5142 0 20 4.47654 20 10Z"
			fill="#F2F2F2"
		/>
		<path d="M20.7617 4H-0.238281V16H20.7617V4Z" fill="#3A4ABA" />
		<path
			d="M4.74248 8.48284L4.34302 7.18148C5.29734 6.81965 6.28607 6.35041 6.88682 5.8551H8.03618V14.1085H6.46963V7.69973L4.74248 8.48284Z"
			fill="white"
		/>
		<path
			d="M9.23022 9.95415C9.23022 7.63924 9.81846 5.79565 12.2799 5.79565C14.7361 5.79565 15.3191 7.64133 15.3191 9.95415C15.3191 12.293 14.7361 14.2336 12.2799 14.2336C9.82055 14.2326 9.23022 12.293 9.23022 9.95415ZM10.8906 9.95415C10.8906 11.5788 11.1785 12.9416 12.2799 12.9416C13.376 12.9416 13.6649 11.5788 13.6649 9.95415C13.6649 8.32641 13.3792 7.09492 12.2799 7.09492C11.1795 7.09492 10.8906 8.32641 10.8906 9.95415Z"
			fill="white"
		/>
	</g>
</svg>
