<svg data-linecolor="#E29626" xmlns="http://www.w3.org/2000/svg" width="20" height="20" viewBox="0 0 19.168 19.18">
	<path
		fill="#E29626"
		d="M19.168,9.59c0,5.298-4.287,9.588-9.582,9.588C4.288,19.179,0,14.888,0,9.59C0,4.293,4.288,0,9.587,0 C14.881,0,19.168,4.293,19.168,9.59z"
	/>
	<path
		fill="#FFFFFF"
		d="M6.605,13.279l0.473-1.225C7.953,12.458,8.576,12.58,9.3,12.58c1.066,0,1.568-0.639,1.568-1.471 c0-0.649-0.306-1.435-1.347-1.435c-0.492,0-0.958,0.194-1.324,0.587l-1.144-0.1l0.161-4.729h4.839v1.409H8.599L8.492,8.881 l0.024,0.013c0.389-0.332,0.982-0.577,1.568-0.577c1.475,0,2.461,0.932,2.461,2.697c0,1.898-1.186,2.881-3.148,2.881 C8.432,13.894,7.605,13.734,6.605,13.279z"
	/>
	<path
		fill="#F2F2F2"
		d="M8.643,0.99c0.334,0.58-0.697,1.8-2.302,2.724C4.734,4.64,3.164,4.918,2.829,4.338 c-0.334-0.581,0.695-1.8,2.302-2.726C6.736,0.689,8.308,0.41,8.643,0.99z"
	/>
	<path
		fill="#F2F2F2"
		d="M3.295,6.837c0.298,0.519,0.13,1.174-0.376,1.466C2.414,8.594,1.762,8.409,1.464,7.891 C1.165,7.373,1.333,6.717,1.839,6.426C2.345,6.135,2.997,6.319,3.295,6.837z"
	/>
</svg>
