<svg data-linecolor="#097C16" width="20" height="20" viewBox="0 0 20 20" fill="none" xmlns="http://www.w3.org/2000/svg">
	<g clip-path="url(#clip0_808_1319)">
		<mask id="mask0_808_1319" style="mask-type: alpha" maskUnits="userSpaceOnUse" x="0" y="0" width="20" height="20">
			<path
				d="M20 10.001C20 15.5255 15.5207 20 10.0021 20C4.46786 19.999 0 15.5255 0 10.001C0 4.47758 4.46786 0 10.0031 0C15.5207 0 20 4.47758 20 10.001Z"
				fill="#F2F2F2"
			/>
		</mask>
		<g mask="url(#mask0_808_1319)">
			<path
				d="M20 10C20 15.5245 15.5152 19.9979 10 19.9979C4.47226 19.999 0 15.5245 0 10C0 4.47654 4.47226 0 9.99896 0C15.5142 0 20 4.47654 20 10Z"
				fill="#F2F2F2"
			/>
			<path d="M19.9995 4H-0.000488281V16H19.9995V4Z" fill="#097C16" />
			<path
				d="M5.44342 8.68505L5.10327 7.56096C5.92756 7.24813 6.77794 6.84354 7.30277 6.41602H8.28983V13.5474H6.93445V8.00934L5.44342 8.68505Z"
				fill="white"
			/>
			<path
				d="M13.7813 6.46924V10.7883H14.6859V11.9145H13.7813V13.5495H12.4248V11.9145H9.21948V10.7883C10.3641 9.53806 11.3658 8.13451 12.1066 6.46924H13.7813ZM12.4248 10.7883V8.22732H12.4029C11.8353 9.26903 11.3199 9.94682 10.6041 10.7894L12.4248 10.7883Z"
				fill="white"
			/>
		</g>
	</g>
	<defs>
		<clipPath id="clip0_808_1319">
			<rect width="20" height="20" fill="white" />
		</clipPath>
	</defs>
</svg>
