<svg data-linecolor="#B4519E" width="20" height="20" viewBox="0 0 20 20" fill="none" xmlns="http://www.w3.org/2000/svg">
	<mask id="mask0_808_1321" style="mask-type: alpha" maskUnits="userSpaceOnUse" x="0" y="0" width="20" height="20">
		<path
			d="M20 10.001C20 15.5245 15.5215 19.9979 10 19.9979C4.47226 19.999 0 15.5245 0 10.001C0 4.47758 4.47226 0 9.99896 0C15.5204 0 20 4.47758 20 10.001Z"
			fill="#F2F2F2"
		/>
	</mask>
	<g mask="url(#mask0_808_1321)">
		<path
			d="M20 10C20 15.5245 15.5152 19.9979 10 19.9979C4.47226 19.999 0 15.5245 0 10C0 4.47654 4.47226 0 9.99896 0C15.5142 0 20 4.47654 20 10Z"
			fill="#F2F2F2"
		/>
		<path d="M20 4H0V16H20V4Z" fill="#B4519E" />
		<path
			d="M5.61427 8.66323L5.26904 7.5235C6.0982 7.2065 6.96491 6.79566 7.49578 6.36292H8.49599V13.5881H7.12449V7.97814L5.61427 8.66323Z"
			fill="white"
		/>
		<path
			d="M9.95421 7.93644L9.54224 6.83842C10.4069 6.49223 11.0295 6.31079 11.9484 6.31079C13.5733 6.31079 14.3409 7.27325 14.3409 8.48493C14.3409 9.96251 13.2782 11.1022 11.4863 12.3556V12.3765H14.4505V13.5892H9.54224V12.2816C12.3249 10.51 12.8975 9.53707 12.8975 8.78003C12.8975 7.69452 12.0746 7.56731 11.6292 7.56731C11.1557 7.56522 10.702 7.62883 9.95421 7.93644Z"
			fill="white"
		/>
	</g>
</svg>
