<svg data-linecolor="#6B343A" xmlns="http://www.w3.org/2000/svg" width="20" height="20" viewBox="0 0 19.176 19.178">
	<path
		fill="#6B343A"
		d="M19.176,9.59c0,5.298-4.293,9.587-9.582,9.587C4.288,19.178,0,14.888,0,9.59S4.288,0,9.594,0 C14.882,0,19.176,4.293,19.176,9.59z"
	/>
	<path
		fill="#E5E5E4"
		d="M10.518,6.845H6.911V5.434h5.336v1.141c-1.156,2.009-2.33,4.191-2.821,7.195H7.647 c0.372-2.183,1.581-4.964,2.869-6.901V6.845H10.518z"
	/>
	<path
		fill="#F2F2F2"
		d="M8.643,0.99c0.334,0.581-0.697,1.8-2.302,2.724C4.734,4.64,3.164,4.918,2.829,4.338 C2.495,3.757,3.524,2.539,5.131,1.613C6.736,0.689,8.308,0.41,8.643,0.99z"
	/>
	<path
		fill="#F2F2F2"
		d="M3.295,6.837c0.298,0.519,0.13,1.174-0.376,1.466C2.414,8.594,1.762,8.41,1.464,7.892 C1.165,7.373,1.333,6.717,1.839,6.426C2.345,6.135,2.997,6.319,3.295,6.837z"
	/>
</svg>
