<svg data-linecolor="#3A4ABA" xmlns="http://www.w3.org/2000/svg" width="20" height="20" viewBox="0 0 19.176 19.18">
	<path
		fill="#3A4ABA"
		d="M19.176,9.591c0,5.297-4.293,9.587-9.582,9.587C4.294,19.179,0,14.888,0,9.591S4.288,0,9.588,0 C14.882,0,19.176,4.294,19.176,9.591z"
	/>
	<path
		fill="#FFFFFF"
		d="M7.21,7.202L6.731,5.926c1.006-0.403,1.731-0.613,2.797-0.613c1.886,0,2.779,1.118,2.779,2.526 c0,1.717-1.233,3.039-3.318,4.498v0.022h3.443v1.411H6.731V12.25c3.234-2.059,3.899-3.188,3.899-4.068 c0-1.262-0.958-1.411-1.474-1.411C8.605,6.77,8.079,6.844,7.21,7.202z"
	/>
	<path
		fill="#F2F2F2"
		d="M8.643,0.99c0.334,0.58-0.697,1.8-2.302,2.724C4.734,4.64,3.164,4.918,2.829,4.338 c-0.334-0.581,0.695-1.8,2.302-2.726C6.736,0.689,8.308,0.41,8.643,0.99z"
	/>
	<path
		fill="#F2F2F2"
		d="M3.295,6.837c0.298,0.519,0.13,1.174-0.376,1.466C2.414,8.594,1.762,8.409,1.464,7.891 C1.165,7.373,1.333,6.717,1.839,6.426C2.345,6.135,2.997,6.319,3.295,6.837z"
	/>
</svg>
