<svg data-linecolor="#E29626" width="20" height="20" viewBox="0 0 20 20" fill="none" xmlns="http://www.w3.org/2000/svg">
	<mask id="mask0_808_1320" style="mask-type: alpha" maskUnits="userSpaceOnUse" x="0" y="0" width="20" height="20">
		<path
			d="M20 10C20 15.5245 15.5269 19.9979 10.0021 19.9979C4.47412 19.999 0 15.5245 0 10C0 4.47654 4.47412 0 10.0031 0C15.5269 0 20 4.47654 20 10Z"
			fill="#F2F2F2"
		/>
	</mask>
	<g mask="url(#mask0_808_1320)">
		<path
			d="M20 10C20 15.5245 15.5152 19.9979 10 19.9979C4.47226 19.999 0 15.5245 0 10C0 4.47654 4.47226 0 9.99896 0C15.5142 0 20 4.47654 20 10Z"
			fill="#F2F2F2"
		/>
		<path d="M20.0037 4H0.00366211V16H20.0037V4Z" fill="#E29626" />
		<path
			d="M5.3141 8.62044L4.94995 7.43796C5.81806 7.10845 6.71852 6.68196 7.26318 6.23462H8.30659V13.7372H6.88443V7.91137L5.3141 8.62044Z"
			fill="white"
		/>
		<path
			d="M13.197 9.87177C14.23 10.1231 14.711 10.8801 14.711 11.7122C14.711 13.0908 13.7114 13.8499 11.9919 13.8499C11.0601 13.8499 10.2734 13.7279 9.3938 13.3097L9.8216 12.2263C10.5342 12.5444 11.2156 12.6768 11.9042 12.6768C12.9748 12.6768 13.2513 12.0522 13.2513 11.6361C13.2513 10.9458 12.7473 10.6069 11.7822 10.6069H10.7972V9.42235H11.7196C12.7995 9.42235 13.0802 8.83006 13.0802 8.30556C13.0802 7.8676 12.7661 7.36083 11.9053 7.36083C11.2365 7.36083 10.6949 7.49326 9.98228 7.81025L9.56179 6.71745C10.4456 6.31077 11.3231 6.17834 12.1588 6.17834C13.4495 6.17834 14.494 6.84779 14.494 8.15123C14.494 8.97188 13.9994 9.55374 13.197 9.84988V9.87177Z"
			fill="white"
		/>
	</g>
</svg>
