<svg data-linecolor="#ED2726" width="20" height="20" viewBox="0 0 20 20" fill="none" xmlns="http://www.w3.org/2000/svg">
	<mask id="mask0_808_1330" style="mask-type: alpha" maskUnits="userSpaceOnUse" x="0" y="0" width="20" height="20">
		<path
			d="M20 10C20 15.5245 15.5152 19.9979 10 19.9979C4.47226 19.999 0 15.5245 0 10C0 4.47654 4.47226 0 9.99896 0C15.5142 0 20 4.47654 20 10Z"
			fill="#F2F2F2"
		/>
	</mask>
	<g mask="url(#mask0_808_1330)">
		<path
			d="M20 10C20 15.5245 15.5152 19.9979 10 19.9979C4.47226 19.999 0 15.5245 0 10C0 4.47654 4.47226 0 9.99896 0C15.5142 0 20 4.47654 20 10Z"
			fill="#F2F2F2"
		/>
		<path d="M19.9995 4H-0.000488281V16H19.9995V4Z" fill="#ED2726" />
		<path
			d="M6.19312 8.55681L5.81348 7.32323C6.71877 6.97808 7.65745 6.53387 8.22795 6.06567H9.31786V13.8988H7.82537V7.81541L6.19312 8.55681Z"
			fill="white"
		/>
		<path
			d="M10.5422 8.55681L10.1626 7.32323C11.0679 6.97808 12.0076 6.53387 12.575 6.06567H13.6659V13.8988H12.1797V7.81541L10.5422 8.55681Z"
			fill="white"
		/>
	</g>
</svg>
