<svg data-linecolor="#E2CA12" width="20" height="20" viewBox="0 0 20 20" fill="none" xmlns="http://www.w3.org/2000/svg">
	<mask id="mask0_808_1324" style="mask-type: alpha" maskUnits="userSpaceOnUse" x="0" y="0" width="20" height="20">
		<path d="M20 10.001C20 15.5245 15.5152 19.9979 10 19.9979C4.47226 19.999 0 15.5245 0 10.001C0 4.47758 4.47226 0 9.99896 0C15.5142 0 20 4.47758 20 10.001Z" fill="#F2F2F2" />
	</mask>
	<g mask="url(#mask0_808_1324)">
		<path d="M20 10C20 15.5245 15.5152 19.9979 10 19.9979C4.47226 19.999 0 15.5245 0 10C0 4.47654 4.47226 0 9.99896 0C15.5142 0 20 4.47654 20 10Z" fill="#F2F2F2" />
		<path d="M19.9404 4H-0.0595703V16H19.9404V4Z" fill="#E2CA12" />
		<path
			d="M11.3998 10.5881C10.968 11.1272 10.2869 11.4848 9.56205 11.4848C7.91311 11.4848 6.88892 10.3972 6.88892 8.47963C6.88892 6.63812 8.13839 5.53906 9.89371 5.53906C12.2175 5.53906 13.0915 7.45669 13.0915 9.50152C13.0915 13.4014 11.3361 14.488 9.30652 14.488C8.47632 14.488 7.83176 14.3597 7.158 14.1272L7.36451 12.8634C8.12588 13.0406 8.63798 13.1188 9.16363 13.1188C10.4194 13.1188 11.4446 12.0959 11.4248 10.5995L11.3998 10.5881ZM9.98132 6.91862C9.25646 6.91862 8.65154 7.44417 8.65154 8.47963C8.65154 9.16993 8.90706 10.0385 10.0064 10.0385C10.5289 10.0385 10.9555 9.74448 11.2882 9.34824C11.3862 8.16159 11.1974 6.91862 9.98132 6.91862Z"
			fill="#222222" />
	</g>
</svg>
