<svg data-linecolor="#000000" xmlns="http://www.w3.org/2000/svg" width="20" height="20" viewBox="0 0 19.176 19.186">
	<path
		d="M19.176,9.597c0,5.294-4.3,9.588-9.587,9.588C4.288,19.185,0,14.891,0,9.597C0,4.296,4.288,0,9.588,0 C14.876,0,19.176,4.296,19.176,9.597z"
	/>
	<path
		fill="#F7EFF1"
		d="M10.977,9.402c1.08,0.512,1.689,1.149,1.689,2.12c0,1.641-1.419,2.377-3.138,2.377 c-1.629,0-3.048-0.649-3.048-2.207c0-1.006,0.646-1.656,1.677-2.072V9.597C7.288,9.169,6.726,8.531,6.726,7.549 c0-1.494,1.395-2.229,2.904-2.229c1.42,0,2.791,0.736,2.791,2.146c0,0.933-0.539,1.458-1.442,1.91v0.027H10.977z M9.629,12.723 c1.042,0,1.408-0.504,1.408-1.055c0-0.872-0.982-1.165-1.701-1.458c-0.628,0.245-1.215,0.649-1.215,1.312 C8.121,12.121,8.534,12.723,9.629,12.723z M8.318,7.512c0,0.713,0.718,1.117,1.455,1.3c0.575-0.21,1.054-0.614,1.054-1.213 c0-0.714-0.599-1.105-1.299-1.105C8.917,6.495,8.318,6.863,8.318,7.512z"
	/>
	<path
		fill="#F2F2F2"
		d="M8.643,0.99c0.334,0.581-0.697,1.8-2.302,2.724C4.734,4.64,3.164,4.918,2.829,4.338 C2.495,3.757,3.524,2.538,5.131,1.613C6.736,0.689,8.308,0.41,8.643,0.99z"
	/>
	<path
		fill="#F2F2F2"
		d="M3.295,6.837c0.298,0.519,0.13,1.174-0.376,1.466C2.414,8.594,1.762,8.409,1.464,7.891 C1.165,7.373,1.333,6.717,1.839,6.426C2.345,6.135,2.997,6.319,3.295,6.837z"
	/>
</svg>
