<svg data-linecolor="#B4519E" xmlns="http://www.w3.org/2000/svg" width="20" height="20" viewBox="0 0 19.176 19.18">
	<path
		fill="#B4519E"
		d="M19.176,9.591c0,5.297-4.293,9.587-9.582,9.587C4.288,19.179,0,14.888,0,9.591C0,4.294,4.288,0,9.594,0 C14.882,0,19.176,4.294,19.176,9.591z"
	/>
	<path
		fill="#FFFFFF"
		d="M11.756,5.435v5.088h1.066v1.323h-1.066v1.926h-1.593v-1.926H6.39v-1.323 c1.347-1.472,2.521-3.126,3.396-5.088H11.756z M10.163,10.522V7.507h-0.024c-0.677,1.226-1.276,2.024-2.12,3.017L10.163,10.522 L10.163,10.522z"
	/>
	<path
		fill="#F2F2F2"
		d="M8.643,0.99c0.334,0.581-0.697,1.8-2.302,2.724C4.734,4.64,3.164,4.918,2.829,4.338 C2.495,3.757,3.524,2.538,5.131,1.613C6.736,0.689,8.308,0.41,8.643,0.99z"
	/>
	<path
		fill="#F2F2F2"
		d="M3.295,6.837c0.298,0.519,0.13,1.174-0.376,1.466C2.414,8.594,1.762,8.409,1.464,7.891 C1.165,7.373,1.333,6.717,1.839,6.426C2.345,6.135,2.997,6.319,3.295,6.837z"
	/>
</svg>
