<svg data-linecolor="#097C16" xmlns="http://www.w3.org/2000/svg" width="20" height="20" viewBox="0 0 19.168 19.18">
	<path
		fill="#097C16"
		d="M19.168,9.591c0,5.298-4.293,9.589-9.582,9.589C4.282,19.179,0,14.889,0,9.591C0,4.294,4.282,0,9.587,0 C14.875,0,19.168,4.294,19.168,9.591z"
	/>
	<path
		fill="#FFFFFF"
		d="M8.222,9.064C8.647,8.537,9.288,8.192,10,8.192c1.581,0,2.545,1.043,2.545,2.882 c0,1.766-1.186,2.819-2.869,2.819c-2.228,0-3.073-1.827-3.073-3.801c0-3.739,1.677-4.781,3.641-4.781 c0.797,0,1.408,0.123,2.043,0.346l-0.182,1.225c-0.736-0.183-1.238-0.246-1.73-0.246c-1.204,0-2.18,0.982-2.18,2.417L8.222,9.064z M9.594,12.583c0.702,0,1.276-0.516,1.276-1.509c0-0.662-0.246-1.495-1.3-1.495c-0.515,0-0.91,0.281-1.228,0.662 C8.246,11.382,8.432,12.583,9.594,12.583z"
	/>
	<path
		fill="#F2F2F2"
		d="M8.643,0.99c0.334,0.58-0.697,1.8-2.302,2.724C4.734,4.64,3.164,4.918,2.829,4.338 c-0.334-0.581,0.695-1.8,2.302-2.726C6.736,0.689,8.308,0.41,8.643,0.99z"
	/>
	<path
		fill="#F2F2F2"
		d="M3.295,6.837c0.298,0.519,0.13,1.174-0.376,1.466C2.414,8.594,1.762,8.409,1.464,7.891 C1.165,7.373,1.333,6.717,1.839,6.426C2.345,6.135,2.997,6.319,3.295,6.837z"
	/>
</svg>
