<svg data-linecolor="#ED2726" xmlns="http://www.w3.org/2000/svg" width="20" height="20" viewBox="0 0 19.176 19.18">
	<path
		fill="#ED2726"
		d="M19.176,9.59c0,5.298-4.293,9.588-9.582,9.588C4.288,19.179,0,14.888,0,9.59C0,4.293,4.288,0,9.594,0 C14.882,0,19.176,4.293,19.176,9.59z"
	/>
	<path
		fill="#FFFFFF"
		d="M10.863,9.444c1.15,0.281,1.688,1.129,1.688,2.06c0,1.542-1.113,2.391-3.036,2.391 c-1.042,0-1.928-0.136-2.904-0.603l0.473-1.213c0.796,0.356,1.558,0.503,2.33,0.503c1.204,0,1.509-0.698,1.509-1.165 c0-0.771-0.562-1.152-1.641-1.152H8.181V8.941h1.03c1.209,0,1.516-0.662,1.516-1.249c0-0.491-0.342-1.058-1.312-1.058 c-0.749,0-1.347,0.149-2.144,0.504L6.791,5.914c0.994-0.455,1.976-0.602,2.905-0.602c1.449,0,2.611,0.749,2.611,2.207 c0,0.919-0.551,1.568-1.443,1.901V9.444L10.863,9.444z"
	/>
	<path
		fill="#F2F2F2"
		d="M8.643,0.99c0.334,0.581-0.697,1.8-2.302,2.724C4.734,4.64,3.164,4.918,2.829,4.338 C2.495,3.757,3.524,2.538,5.131,1.613C6.736,0.689,8.308,0.41,8.643,0.99z"
	/>
	<path
		fill="#F2F2F2"
		d="M3.295,6.837c0.298,0.519,0.13,1.174-0.376,1.466C2.414,8.594,1.762,8.409,1.464,7.891 C1.165,7.373,1.333,6.717,1.839,6.426C2.345,6.135,2.997,6.319,3.295,6.837z"
	/>
</svg>
